<svg width="16" height="16" viewBox="0 0 16 16" fill="none" xmlns="http://www.w3.org/2000/svg">
<rect width="16" height="16" fill="white"/>
<path d="M12.3248 7.86841C13.101 7.76905 13.8752 7.65969 14.6514 7.5622C14.9013 7.53096 15.12 7.36973 15.12 7.09353C15.12 6.86481 14.9044 6.5936 14.6514 6.62485C13.8752 6.72233 13.101 6.83169 12.3248 6.93105C12.0749 6.96292 11.8562 7.12352 11.8562 7.39973C11.8562 7.62782 12.0717 7.89965 12.3248 7.86841Z" fill="#FFB342"/>
<path d="M10.9465 10.6737C11.5296 11.1948 12.1195 11.7091 12.7013 12.2316C13.1487 12.634 13.8142 11.9728 13.3643 11.5685C12.7819 11.0461 12.1926 10.5318 11.6095 10.0106C11.1609 9.61008 10.4953 10.2706 10.9465 10.6737Z" fill="#FFB342"/>
<path d="M5.05974 11.2061C4.55982 11.8091 4.06927 12.4178 3.56935 13.0183C3.18565 13.4789 3.84555 14.1432 4.23174 13.6807C4.73167 13.0796 5.22347 12.4709 5.72277 11.8685C6.10458 11.4073 5.44469 10.7406 5.05974 11.2055V11.2061Z" fill="#FFB342"/>
<path d="M3.58958 8.61574C2.83532 8.82258 2.08356 9.0388 1.32867 9.24065C0.747513 9.39875 0.99435 10.303 1.57864 10.1449C2.33477 9.94304 3.08466 9.7262 3.83892 9.51935C4.42008 9.36 4.17324 8.45701 3.58896 8.61574H3.58958Z" fill="#FFB342"/>
<path d="M4.75542 5.71377C4.36298 5.48631 3.97679 5.24885 3.58435 5.02076C3.06193 4.71705 2.5895 5.52693 3.11129 5.83313C3.50373 6.06122 3.8893 6.29931 4.28237 6.52615C4.80604 6.82861 5.27847 6.01873 4.75542 5.71377Z" fill="#FFB342"/>
<path d="M8.92396 13.5313C8.87646 13.0802 8.84147 12.6284 8.79522 12.1765C8.7696 11.9266 8.59838 11.7079 8.32655 11.7079C8.09346 11.7079 7.83162 11.9235 7.85787 12.1765C7.90411 12.6284 7.9391 13.0802 7.9866 13.5313C8.01284 13.7813 8.18282 14 8.45528 14C8.68774 14 8.95083 13.7844 8.92396 13.5313Z" fill="#FFB342"/>
<path d="M11.5339 5.36077C11.7876 4.98583 12.0514 4.61526 12.3057 4.23969C12.4475 4.02972 12.3457 3.72039 12.1376 3.59854C11.9064 3.46356 11.6377 3.55604 11.4958 3.76664C11.2421 4.14158 10.9784 4.51152 10.7247 4.88772C10.5835 5.09768 10.6841 5.40701 10.8928 5.52887C11.1234 5.66385 11.3927 5.57136 11.5339 5.36077Z" fill="#FFB342"/>
<path d="M8.26702 4.64143C8.17454 3.86468 8.07268 3.08917 7.98207 2.31179C7.9527 2.06183 7.78772 1.84311 7.51339 1.84311C7.2828 1.84311 7.01346 2.0587 7.04471 2.31179C7.13532 3.08917 7.23718 3.86468 7.32966 4.64143C7.35966 4.8914 7.52401 5.11011 7.79834 5.11011C8.02831 5.11011 8.29827 4.8939 8.26702 4.64143Z" fill="#FFB342"/>
<path d="M8.21534 6.55991C8.38031 6.36806 8.56029 6.18496 8.73651 5.99374C7.58856 6.66927 6.50435 7.4529 5.31203 8.05218C5.29003 8.06304 5.26594 8.06901 5.24141 8.06968C5.117 8.4649 5.12512 8.88994 5.26453 9.28012C5.32899 9.45317 5.41938 9.61542 5.53262 9.7613C6.07566 9.1039 6.6462 8.46899 7.18049 7.80409C7.51794 7.38291 7.86289 6.96818 8.21534 6.55991Z" fill="#FFB342"/>
<path d="M10.4103 7.1349C9.81293 7.4736 9.20615 7.79855 8.61999 8.15662C7.66162 8.74614 6.7389 9.39175 5.85666 10.0901C6.14575 10.3158 6.48157 10.4742 6.83964 10.5538C7.56265 9.83199 8.28817 9.11335 9.0268 8.40596C9.4784 7.97228 9.93958 7.54859 10.4103 7.1349Z" fill="#FFB342"/>
<path d="M10.8083 8.49523C10.9456 8.08821 10.9416 7.64678 10.797 7.24229C10.797 7.23292 10.7901 7.22417 10.7864 7.21542L10.6683 7.31916C10.1859 7.74534 9.70968 8.17965 9.24475 8.62521C8.67546 9.17075 8.11367 9.72442 7.55375 10.28C7.97181 10.0362 8.39925 9.80816 8.81794 9.57632C9.47846 9.21012 10.1459 8.86142 10.8083 8.49523Z" fill="#FFB342"/>
<path d="M8.54317 6.6524C8.17823 7.07442 7.82036 7.50227 7.46958 7.93596C7.06152 8.44088 6.63471 8.9308 6.21415 9.42573C6.91092 8.90081 7.62831 8.40401 8.37132 7.94595C9.06809 7.51602 9.79423 7.13358 10.5022 6.72614C10.1898 6.3412 9.72299 6.07686 9.17933 5.95813C8.97061 6.19309 8.74689 6.41431 8.54317 6.6524Z" fill="#FFB342"/>
<path d="M9.07085 9.78877C8.57093 10.065 8.05038 10.3356 7.55108 10.633C7.98465 10.6324 8.41464 10.5545 8.82089 10.4031C9.62639 10.1062 10.2526 9.57255 10.6012 8.96077C10.0919 9.2401 9.5789 9.51069 9.07085 9.78877Z" fill="#FFB342"/>
<path d="M8.29951 5.89375C7.93787 5.91616 7.58144 5.99132 7.24154 6.11684C6.39542 6.4293 5.74739 7.00171 5.41057 7.65224C6.40792 7.12419 7.33403 6.47679 8.29951 5.89375Z" fill="#FFB342"/>
</svg>
