<svg width="148" height="54" viewBox="0 0 148 54" fill="none" xmlns="http://www.w3.org/2000/svg">
<path d="M2.12578 53.9487C14.744 51.005 27.4333 48.4066 40.1937 46.1535C42.3453 45.7719 41.4339 42.4875 39.2868 42.8669C26.5294 45.12 13.8394 47.7184 1.2166 50.6621C-0.914663 51.1595 -0.0122791 54.4461 2.12351 53.9487H2.12578Z" fill="#FFB342"/>
<path d="M32.8944 42.3833C35.1844 38.1336 37.4993 33.8953 39.719 29.6071C40.8526 27.4243 41.9568 25.2279 43.0179 23.0088C43.8704 21.2258 45.5981 18.6524 43.68 16.9489C41.9069 15.3749 39.787 16.74 38.4357 18.096C36.7821 19.751 35.2025 21.4749 33.6971 23.2678C30.817 26.707 28.1408 30.3125 25.6822 34.0657C22.8027 38.4335 20.1613 42.9625 17.5879 47.5051C16.5087 49.4153 19.4448 51.1393 20.5354 49.2245C24.4465 42.3038 28.5186 35.4421 33.3456 29.1142C35.694 26.0289 38.2474 23.1059 40.9887 20.365C41.0068 20.3468 41.7913 19.7131 41.7958 19.6654C41.7958 19.7018 41.1655 18.984 41.1633 18.984C41.161 18.984 40.8254 19.729 40.8799 19.6109C40.4491 20.549 40.0001 21.4825 39.5489 22.4115C38.5922 24.38 37.6097 26.331 36.6015 28.2647C34.4407 32.4235 32.1938 36.5369 29.9719 40.6616C28.9312 42.5923 31.8673 44.3139 32.908 42.381L32.8944 42.3833Z" fill="#FFB342"/>
<path d="M59.5599 31.4333C59.1767 29.7753 58.1542 28.2535 56.4809 27.7129C55.0117 27.2314 53.1661 27.5584 51.7808 28.1558C48.4479 29.5936 45.6251 32.6485 43.8997 35.7898C42.392 38.5381 40.2017 44.4867 44.827 45.6201C46.625 46.0607 48.9082 45.7177 50.6563 45.1862C52.4444 44.6288 54.0722 43.6479 55.4017 42.3266C58.2245 39.5761 60.0927 35.4036 59.5599 31.4243C59.4375 30.5157 58.2676 30.0115 57.4695 30.2363C56.4855 30.5112 56.1567 31.4106 56.2814 32.3305C56.6396 35.0107 54.8326 38.1179 52.9961 39.9077C51.8075 41.0818 50.2925 41.8688 48.6497 42.1654C47.8017 42.3302 46.9365 42.3889 46.074 42.3403C45.3689 42.2971 45.3168 41.886 45.4188 41.2046C45.8723 38.211 47.974 35.2855 50.1597 33.3026C51.2639 32.3033 52.6175 31.2266 54.1207 30.9745C55.3768 30.7633 55.9799 31.029 56.2814 32.3373C56.7734 34.4746 60.0542 33.5707 59.5599 31.4333Z" fill="#FFB342"/>
<path d="M137.205 21.9005C140.021 21.5394 142.831 21.1419 145.646 20.7876C146.553 20.674 147.347 20.088 147.347 19.0841C147.347 18.2528 146.565 17.267 145.646 17.3806C142.831 17.7349 140.021 18.1324 137.205 18.4935C136.298 18.6094 135.505 19.1931 135.505 20.197C135.505 21.026 136.287 22.0141 137.205 21.9005Z" fill="#FFB342"/>
<path d="M132.202 32.0962C134.317 33.9905 136.458 35.8598 138.568 37.7587C140.192 39.2214 142.606 36.8183 140.974 35.3488C138.861 33.4499 136.723 31.5806 134.607 29.6863C132.98 28.2304 130.565 30.6312 132.202 32.0962Z" fill="#FFB342"/>
<path d="M110.844 34.0314C109.031 36.2233 107.251 38.4355 105.437 40.6183C104.045 42.2923 106.439 44.7067 107.84 43.0259C109.654 40.8409 111.439 38.6286 113.25 36.439C114.635 34.7628 112.241 32.3393 110.844 34.0292V34.0314Z" fill="#FFB342"/>
<path d="M105.51 24.6161C102.773 25.3679 100.046 26.1538 97.3067 26.8874C95.1982 27.462 96.0937 30.7487 98.2137 30.174C100.957 29.4404 103.678 28.6522 106.414 27.9004C108.523 27.3212 107.627 24.0391 105.508 24.6161H105.51Z" fill="#FFB342"/>
<path d="M109.739 14.0681C108.315 13.2413 106.914 12.3782 105.49 11.5491C103.595 10.4453 101.881 13.3889 103.774 14.5019C105.198 15.3309 106.597 16.1963 108.023 17.0208C109.923 18.1201 111.637 15.1765 109.739 14.0681Z" fill="#FFB342"/>
<path d="M124.864 42.4832C124.692 40.8433 124.565 39.2011 124.397 37.559C124.304 36.6504 123.683 35.8555 122.696 35.8555C121.851 35.8555 120.901 36.6391 120.996 37.559C121.164 39.2011 121.291 40.8433 121.463 42.4832C121.558 43.3918 122.175 44.1867 123.163 44.1867C124.007 44.1867 124.961 43.4031 124.864 42.4832Z" fill="#FFB342"/>
<path d="M134.334 12.7856C135.254 11.4228 136.211 10.0759 137.134 8.71081C137.648 7.94764 137.279 6.82333 136.524 6.38042C135.685 5.88981 134.71 6.22597 134.195 6.99141C133.275 8.35421 132.318 9.69884 131.397 11.0662C130.885 11.8293 131.25 12.9537 132.007 13.3966C132.844 13.8872 133.821 13.551 134.334 12.7856Z" fill="#FFB342"/>
<path d="M122.48 10.171C122.144 7.34776 121.775 4.52903 121.446 1.7035C121.34 0.794966 120.741 0 119.746 0C118.909 0 117.932 0.783609 118.045 1.7035C118.374 4.52903 118.743 7.34776 119.079 10.171C119.188 11.0796 119.784 11.8745 120.78 11.8745C121.614 11.8745 122.593 11.0886 122.48 10.171Z" fill="#FFB342"/>
<path d="M122.293 17.1438C122.891 16.4465 123.544 15.781 124.184 15.0859C120.019 17.5412 116.085 20.3895 111.759 22.5677C111.679 22.6072 111.592 22.6289 111.503 22.6313C111.051 24.0678 111.081 25.6127 111.587 27.0309C111.821 27.6599 112.149 28.2496 112.559 28.7798C114.53 26.3904 116.6 24.0827 118.538 21.666C119.763 20.1351 121.014 18.6277 122.293 17.1438Z" fill="#FFB342"/>
<path d="M130.257 19.2339C128.09 20.4649 125.888 21.646 123.761 22.9475C120.284 25.0902 116.936 27.4368 113.735 29.975C114.784 30.7955 116.003 31.3713 117.302 31.6603C119.925 29.0369 122.557 26.4249 125.237 23.8538C126.876 22.2775 128.549 20.7375 130.257 19.2339Z" fill="#FFB342"/>
<path d="M131.702 24.178C132.2 22.6987 132.185 21.0942 131.661 19.624C131.661 19.59 131.636 19.5582 131.622 19.5264L131.194 19.9034C129.443 21.4525 127.716 23.031 126.029 24.6505C123.963 26.6334 121.925 28.6458 119.894 30.665C121.41 29.7791 122.961 28.9501 124.48 28.1075C126.877 26.7765 129.298 25.509 131.702 24.178Z" fill="#FFB342"/>
<path d="M123.482 17.4805C122.158 19.0144 120.86 20.5695 119.587 22.1458C118.107 23.981 116.558 25.7618 115.032 27.5606C117.56 25.6527 120.163 23.847 122.859 22.1821C125.387 20.6195 128.022 19.2294 130.59 17.7485C129.457 16.3494 127.763 15.3886 125.791 14.957C125.033 15.8111 124.222 16.6151 123.482 17.4805Z" fill="#FFB342"/>
<path d="M125.397 28.8801C123.583 29.884 121.694 30.8675 119.883 31.9487C121.456 31.9464 123.016 31.6634 124.49 31.1128C127.413 30.034 129.684 28.0942 130.949 25.8706C129.102 26.8859 127.24 27.8694 125.397 28.8801Z" fill="#FFB342"/>
<path d="M122.598 14.7222C121.286 14.8036 119.993 15.0768 118.759 15.533C115.689 16.6687 113.338 18.7492 112.116 21.1137C115.735 19.1944 119.095 16.8413 122.598 14.7222Z" fill="#FFB342"/>
<path d="M62.7613 31.5574C60.6278 33.8288 59.0929 37.6696 61.8794 40.1476C64.5276 42.503 68.8264 40.8722 71.2818 39.0597C75.4605 35.9752 79.5053 31.9754 82.2465 27.5531C83.4209 25.6565 80.5642 24.0893 79.299 25.8337C78.1654 27.3986 77.2924 29.2157 76.483 30.9601C75.5376 32.9884 74.5399 35.5777 76.4037 37.4697C78.9861 40.0908 82.4619 37.3357 84.448 35.4255C86.6955 33.2214 88.4605 30.5729 89.6311 27.6485L86.3526 26.7399C85.6905 28.3594 85.0353 29.9471 84.7654 31.6869C84.5425 33.3546 84.5235 35.0433 84.7088 36.7156C84.8969 38.8825 88.3002 38.9029 88.1097 36.7156C87.9782 35.2347 87.8535 33.7175 88.1097 32.2434C88.3818 30.6353 89.0166 29.1453 89.6379 27.6462C89.987 26.7876 89.257 25.7814 88.4498 25.5498C87.4771 25.2704 86.7085 25.8927 86.3594 26.7399C85.5151 28.7688 84.3157 30.6303 82.8178 32.2366C82.064 33.0688 81.2284 33.8229 80.3238 34.4875C79.8704 34.8168 78.8047 35.6231 78.7548 34.6328C78.7072 33.6857 79.6618 32.148 80.1447 31.2145C80.7795 29.9721 81.4257 28.6888 82.2442 27.5531L79.2967 25.8337C77.0634 29.4406 73.8552 32.4955 70.6425 35.2256C70.3885 35.4422 70.1323 35.6549 69.8739 35.8639L69.5655 36.1115C69.926 35.8298 69.3728 36.2523 69.2503 36.3386C68.2641 37.0313 67.1712 37.6242 65.9673 37.8127C65.0604 37.9535 63.9675 37.9581 63.7703 36.886C63.5617 35.7503 64.4505 34.726 65.1533 33.9696C66.652 32.3797 64.2464 29.9584 62.75 31.5597L62.7613 31.5574Z" fill="#FFB342"/>
</svg>
