<svg width="16" height="16" viewBox="0 0 16 16" fill="none" xmlns="http://www.w3.org/2000/svg">
<path d="M5.40544 12.5249C4.4437 12.5249 3.66406 13.3028 3.66406 14.2625C3.66406 15.2221 4.4437 16 5.40544 16C6.36718 16 7.14681 15.2221 7.14681 14.2625C7.14681 13.3028 6.36718 12.5249 5.40544 12.5249ZM5.40544 15.276C4.84443 15.276 4.38964 14.8222 4.38964 14.2625C4.38964 13.7027 4.84443 13.2489 5.40544 13.2489C5.96644 13.2489 6.42124 13.7027 6.42124 14.2625C6.42127 14.8222 5.96648 15.276 5.40544 15.276Z" fill="#EE738D"/>
<path d="M11.9533 12.5249C10.9915 12.5249 10.2119 13.3028 10.2119 14.2625C10.2119 15.2221 10.9915 16 11.9533 16C12.915 16 13.6947 15.2221 13.6947 14.2625C13.6947 13.3028 12.915 12.5249 11.9533 12.5249ZM11.9533 15.276C11.3923 15.276 10.9375 14.8222 10.9375 14.2625C10.9375 13.7027 11.3923 13.2489 11.9533 13.2489C12.5143 13.2489 12.9691 13.7027 12.9691 14.2625C12.9691 14.8222 12.5143 15.276 11.9533 15.276Z" fill="#EE738D"/>
<path d="M15.9264 2.53394C15.86 2.43497 15.7544 2.36907 15.6361 2.35296H3.42831C3.13809 0.904962 1.88647 0 0.39907 0H0.362788C0.16242 0 0 0.162063 0 0.361992C0 0.561921 0.16242 0.723984 0.362788 0.723984H0.39907C1.54316 0.699318 2.53195 1.51635 2.72089 2.64255L3.9181 9.62897C4.10358 10.6614 5.00741 11.4104 6.05855 11.4027H13.3324C13.5328 11.4027 13.6952 11.2407 13.6952 11.0407C13.6952 10.8408 13.5328 10.6787 13.3324 10.6787H6.05855C5.36377 10.6977 4.76076 10.204 4.64368 9.52036L4.55299 9.04976H12.625C13.6099 9.02981 14.4651 8.36773 14.7292 7.42082L15.9808 2.87782C16.0194 2.76117 15.9991 2.63306 15.9264 2.53394ZM14.0217 7.27601C13.8434 7.89796 13.2733 8.32647 12.625 8.32578H4.42599L3.89995 5.24887H14.584L14.0217 7.27601ZM14.8017 4.52488H3.77297L3.55532 3.07691H15.1645L14.8017 4.52488Z" fill="#EE738D"/>
</svg>
