<svg width="29" height="30" viewBox="0 0 29 30" fill="none" xmlns="http://www.w3.org/2000/svg">
<rect width="29" height="30" rx="3" fill="white"/>
<path d="M19 4H25V10" stroke="#FFB634" stroke-linecap="round" stroke-linejoin="round"/>
<path d="M25.1955 4.35355C25.3907 4.15829 25.3907 3.84171 25.1955 3.64645C25.0002 3.45118 24.6836 3.45118 24.4883 3.64645L25.1955 4.35355ZM17.541 10.5938C17.3457 10.7891 17.3457 11.1057 17.541 11.3009C17.7362 11.4962 18.0528 11.4962 18.2481 11.3009L17.541 10.5938ZM24.4883 3.64645L17.541 10.5938L18.2481 11.3009L25.1955 4.35355L24.4883 3.64645Z" fill="#FFB634"/>
<path d="M10 26H4L4 20" stroke="#FFB634" stroke-linecap="round" stroke-linejoin="round"/>
<path d="M3.64634 25.6464C3.45108 25.8417 3.45108 26.1583 3.64634 26.3536C3.84161 26.5488 4.15819 26.5488 4.35345 26.3536L3.64634 25.6464ZM11.3008 19.4062C11.4961 19.2109 11.4961 18.8943 11.3008 18.6991C11.1056 18.5038 10.789 18.5038 10.5937 18.6991L11.3008 19.4062ZM4.35345 26.3536L11.3008 19.4062L10.5937 18.6991L3.64634 25.6464L4.35345 26.3536Z" fill="#FFB634"/>
</svg>
